#!OML:ASF X:\für Bonn\!DataBase\2005_08_11_Bastian_Final\c3d\Bastian.ASF
:FULLY-SPECIFIED
:DEGREES
352
root 0.535095 1.4949 19.9505 -623.608 1.48389 -176.724
lowerback 47.3069 4.78105 9.37135
upperback 26.7809 -5.16803 1.941
thorax 10.5325 -8.92469 -2.2534
lowerneck 4.03483 -3.11386 -11.462
upperneck -1.06474 -4.56245 8.24246
head -0.514189 -2.34506 4.38563
rclavicle -8.56016e-015 -1.03368e-014
rhumerus -59.7503 34.7881 -84.1553
rradius 72.9826
rwrist 3.95438
rhand -21.5634 -3.14867
rfingers 7.12502
rthumb 4.83033 -33.0736
lclavicle -8.56016e-015 -1.03368e-014
lhumerus -46.0944 -5.09743 74.5149
lradius 62.9722
lwrist 26.627
lhand -34.4606 -3.66737
lfingers 7.12502
lthumb -7.62413 26.1752
rfemur -41.092 -6.26739 25.0618
rtibia 69.7094
rfoot 9.94489 -5.55637
rtoes -13.8924
lfemur -28.2035 8.90793 -16.6228
ltibia 48.7385
lfoot 14.3869 6.31625
ltoes -13.082
353
root 0.534018 1.49399 19.9492 -623.768 1.41913 -176.822
lowerback 45.667 4.86638 9.10583
upperback 27.6616 -5.16284 2.00682
thorax 10.8791 -8.84225 -2.32597
lowerneck 4.3511 -3.12688 -11.6133
upperneck -0.799239 -4.62797 8.13947
head -0.479483 -2.38379 4.38175
rclavicle 1.25265e-014 3.37934e-014
rhumerus -58.4767 34.6197 -83.1259
rradius 71.7744
rwrist 4.19653
rhand -22.167 -2.36642
rfingers 7.12502
rthumb 4.24753 -32.3038
lclavicle 1.25265e-014 3.37934e-014
lhumerus -46.241 -5.05536 74.7315
lradius 62.8184
lwrist 25.5184
lhand -34.7545 -4.12334
lfingers 7.12502
lthumb -7.90783 25.7087
rfemur -39.8469 -5.89769 24.9275
rtibia 67.811
rfoot 9.75594 -5.93285
rtoes -13.6225
lfemur -27.8951 8.76923 -16.684
ltibia 48.5143
lfoot 14.3198 6.3138
ltoes -12.6359
354
root 0.532349 1.49227 19.9479 -623.938 1.35341 -176.901
lowerback 45.1739 4.79943 8.99519
upperback 27.6583 -5.16906 1.97419
thorax 10.9756 -8.78525 -2.32962
lowerneck 4.61071 -3.12719 -11.7914
upperneck -0.502657 -4.67185 8.0132
head -0.428269 -2.41028 4.37347
rclavicle -1.78161e-014 -1.27222e-014
rhumerus -57.2216 34.51 -82.1175
rradius 70.5717
rwrist 4.31435
rhand -22.8225 -1.60575
rfingers 7.12502
rthumb 3.61447 -31.5548
lclavicle -1.78161e-014 -1.27222e-014
lhumerus -46.4141 -5.00661 74.9795
lradius 62.659
lwrist 24.3913
lhand -35.1194 -4.49922
lfingers 7.12502
lthumb -8.26002 25.3193
rfemur -38.6035 -5.56524 24.7969
rtibia 65.9305
rfoot 9.60547 -6.26886
rtoes -13.3829
lfemur -27.5859 8.61909 -16.7537
ltibia 48.3039
lfoot 14.2291 6.31991
ltoes -12.6516
355
root 0.531349 1.49116 19.9452 -624.132 1.28855 -176.991
lowerback 44.7026 4.75105 8.88816
upperback 27.6553 -5.1531 1.95172
thorax 11.0722 -8.72072 -2.32931
lowerneck 4.89796 -3.14201 -11.8913
upperneck -0.228929 -4.73225 7.83533
head -0.389406 -2.44428 4.33774
rclavicle -9.06955e-016 3.97569e-016
rhumerus -56.0047 34.3515 -81.1644
rradius 69.3632
rwrist 4.35081
rhand -23.5535 -0.833056
rfingers 7.12502
rthumb 2.90857 -30.793
lclavicle -9.06955e-016 3.97569e-016
lhumerus -46.577 -5.0297 75.2249
lradius 62.5041
lwrist 23.2643
lhand -35.4441 -4.82713
lfingers 7.12502
lthumb -8.5734 24.9788
rfemur -37.3405 -5.18861 24.668
rtibia 64.0802
rfoot 9.42265 -6.62477
rtoes -13.4972
lfemur -27.2532 8.50448 -16.8184
ltibia 48.1018
lfoot 14.1375 6.3024
ltoes -12.5253
356
root 0.530622 1.4896 19.9435 -624.317 1.2257 -177.097
lowerback 44.2362 4.7038 8.7787
upperback 27.6549 -5.14198 1.91853
thorax 11.1723 -8.66008 -2.33857
lowerneck 5.12226 -3.14629 -12.0434
upperneck 0.0755735 -4.77306 7.72736
head -0.330159 -2.46832 4.33009
rclavicle -4.71989e-014 -8.74653e-015
rhumerus -54.8027 34.2026 -80.2732
rradius 68.1869
rwrist 4.21866
rhand -24.3087 -0.173561
rfingers 7.12502
rthumb 2.17921 -30.1422
lclavicle -4.71989e-014 -8.74653e-015
lhumerus -46.722 -4.97627 75.4518
lradius 62.3408
lwrist 22.1453
lhand -35.8111 -5.18238
lfingers 7.12502
lthumb -8.92748 24.6087
rfemur -36.1184 -4.7959 24.5548
rtibia 62.2648
rfoot 9.30748 -6.92666
rtoes -13.9563
lfemur -26.9249 8.38408 -16.8866
ltibia 47.9057
lfoot 14.0468 6.29039
ltoes -12.6951
357
root 0.530527 1.4876 19.9417 -624.509 1.15995 -177.188
lowerback 43.7677 4.65983 8.66086
upperback 27.655 -5.13194 1.90725
thorax 11.2787 -8.6052 -2.32041
lowerneck 5.35351 -3.14824 -12.1767
upperneck 0.363101 -4.80897 7.57259
head -0.278845 -2.48892 4.30545
rclavicle -1.70458e-014 9.14409e-015
rhumerus -53.55 34.0597 -79.4124
rradius 66.922
rwrist 4.00554
rhand -25.0442 0.410553
rfingers 7.12502
rthumb 1.46889 -29.5641
lclavicle -1.70458e-014 9.14409e-015
lhumerus -46.8687 -4.95083 75.6968
lradius 62.1566
lwrist 21.0558
lhand -36.1274 -5.55697
lfingers 7.12502
lthumb -9.23273 24.2209
rfemur -34.9124 -4.4027 24.4468
rtibia 60.5009
rfoot 9.21852 -7.22748
rtoes -14.3108
lfemur -26.5969 8.2355 -16.942
ltibia 47.704
lfoot 13.9746 6.2998
ltoes -12.561
358
root 0.530588 1.48566 19.9417 -624.714 1.12264 -177.303
lowerback 43.3489 4.6119 8.5715
upperback 27.629 -5.10596 1.88703
thorax 11.3418 -8.53649 -2.32092
lowerneck 5.65189 -3.14715 -12.2693
upperneck 0.637855 -4.84345 7.40246
head -0.243339 -2.50876 4.27127
rclavicle 3.96824e-014 -4.81059e-014
rhumerus -52.3118 33.8576 -78.616
rradius 65.6468
rwrist 3.66084
rhand -25.7575 0.938785
rfingers 7.12502
rthumb 0.779976 -29.0395
lclavicle 3.96824e-014 -4.81059e-014
lhumerus -47.0396 -4.97276 75.9368
lradius 61.9797
lwrist 20.0054
lhand -36.4646 -5.90252
lfingers 7.12502
lthumb -9.55805 23.8607
rfemur -33.7117 -3.9637 24.3783
rtibia 58.7859
rfoot 9.10566 -7.5415
rtoes -14.5878
lfemur -26.2421 8.15115 -16.9721
ltibia 47.4947
lfoot 13.8911 6.28422
ltoes -12.5299
359
root 0.532414 1.48309 19.9416 -624.932 1.05891 -177.393
lowerback 42.9227 4.5752 8.453
upperback 27.6295 -5.0971 1.88705
thorax 11.4446 -8.49138 -2.28802
lowerneck 5.90135 -3.13965 -12.3989
upperneck 0.872138 -4.86524 7.2446
head -0.21183 -2.52124 4.24617
rclavicle -4.11236e-015 -1.21259e-014
rhumerus -50.9433 33.6795 -77.7991
rradius 64.3153
rwrist 3.2587
rhand -26.4163 1.37683
rfingers 7.12502
rthumb 0.143631 -28.6029
lclavicle -4.11236e-015 -1.21259e-014
lhumerus -47.1695 -4.92616 76.1533
lradius 61.7941
lwrist 18.9348
lhand -36.7515 -6.24389
lfingers 7.12502
lthumb -9.83492 23.5064
rfemur -32.5356 -3.55001 24.2948
rtibia 57.1424
rfoot 8.98815 -7.82383
rtoes -14.4142
lfemur -25.8773 8.02749 -17.0117
ltibia 47.269
lfoot 13.8068 6.34968
ltoes -12.0713
360
root 0.53438 1.47991 19.943 -625.138 0.994087 -177.501
lowerback 42.5194 4.54496 8.31239
upperback 27.6092 -5.07761 1.88637
thorax 11.5161 -8.44191 -2.24071
lowerneck 6.13963 -3.12257 -12.4967
upperneck 1.14254 -4.86934 7.07768
head -0.170326 -2.5244 4.21253
rclavicle -2.68111e-014 5.96354e-016
rhumerus -49.6293 33.4705 -77.0298
rradius 63.0165
rwrist 2.85874
rhand -27.0262 1.73192
rfingers 7.12502
rthumb -0.445421 -28.2474
lclavicle -2.68111e-014 5.96354e-016
lhumerus -47.2993 -4.90156 76.3881
lradius 61.5751
lwrist 17.88
lhand -37.0765 -6.59836
lfingers 7.12502
lthumb -10.1484 23.1369
rfemur -31.4017 -3.1064 24.2174
rtibia 55.5603
rfoot 8.77119 -8.10618
rtoes -14.0569
lfemur -25.5152 7.92613 -17.0532
ltibia 47.0355
lfoot 13.7402 6.39833
ltoes -11.7451
361
root 0.536839 1.47713 19.9446 -625.341 0.955857 -177.608
lowerback 42.0813 4.51699 8.20458
upperback 27.6042 -5.05161 1.89907
thorax 11.6219 -8.38667 -2.20376
lowerneck 6.40903 -3.10951 -12.635
upperneck 1.35045 -4.88409 6.95334
head -0.149116 -2.53306 4.19983
rclavicle 1.9133e-015 -3.67752e-014
rhumerus -48.294 33.1971 -76.2878
rradius 61.6985
rwrist 2.5052
rhand -27.6472 2.04614
rfingers 7.12502
rthumb -1.04521 -27.931
lclavicle 1.9133e-015 -3.67752e-014
lhumerus -47.3885 -4.8687 76.61
lradius 61.3461
lwrist 16.9231
lhand -37.3449 -7.02563
lfingers 7.12502
lthumb -10.4073 22.6968
rfemur -30.2962 -2.64625 24.1761
rtibia 54.0464
rfoot 8.52518 -8.35281
rtoes -13.661
lfemur -25.1606 7.82053 -17.0595
ltibia 46.799
lfoot 13.6694 6.5113
ltoes -11.1754
